<mxfile host="app.diagrams.net" agent="Mozilla/5.0 (Windows NT 10.0; Win64; x64) AppleWebKit/537.36 (KHTML, like Gecko) Chrome/135.0.0.0 Safari/537.36 Edg/135.0.0.0" version="26.2.10">
  <diagram name="Page-1" id="aGL4iZ-qIyr9bIPXbeac">
    <mxGraphModel dx="1097" dy="672" grid="1" gridSize="10" guides="1" tooltips="1" connect="1" arrows="1" fold="1" page="1" pageScale="1" pageWidth="850" pageHeight="1100" math="0" shadow="0">
      <root>
        <mxCell id="0" />
        <mxCell id="1" parent="0" />
        <mxCell id="UP5W1mAo5ZvH92x6CNs8-2" value="" style="ellipse;html=1;shape=startState;fillColor=#000000;strokeColor=#ff0000;" vertex="1" parent="1">
          <mxGeometry x="125" y="110" width="30" height="30" as="geometry" />
        </mxCell>
        <mxCell id="UP5W1mAo5ZvH92x6CNs8-3" value="" style="edgeStyle=orthogonalEdgeStyle;html=1;verticalAlign=bottom;endArrow=open;endSize=8;strokeColor=light-dark(#FF0000,#FFFFFF);rounded=0;entryX=0;entryY=0.5;entryDx=0;entryDy=0;fillColor=light-dark(transparent,#FFFFFF);" edge="1" source="UP5W1mAo5ZvH92x6CNs8-2" parent="1" target="UP5W1mAo5ZvH92x6CNs8-11">
          <mxGeometry relative="1" as="geometry">
            <mxPoint x="200" y="125" as="targetPoint" />
          </mxGeometry>
        </mxCell>
        <mxCell id="UP5W1mAo5ZvH92x6CNs8-4" value="Tax form" style="shape=umlFrame;whiteSpace=wrap;html=1;pointerEvents=0;width=80;height=50;" vertex="1" parent="1">
          <mxGeometry x="20" y="1880" width="800" height="500" as="geometry" />
        </mxCell>
        <mxCell id="UP5W1mAo5ZvH92x6CNs8-5" value="User" style="shape=umlFrame;whiteSpace=wrap;html=1;pointerEvents=0;width=80;height=50;" vertex="1" parent="1">
          <mxGeometry x="130" y="370" width="600" height="310" as="geometry" />
        </mxCell>
        <mxCell id="UP5W1mAo5ZvH92x6CNs8-6" value="" style="ellipse;html=1;shape=endState;fillColor=strokeColor;" vertex="1" parent="1">
          <mxGeometry x="610" y="110" width="30" height="30" as="geometry" />
        </mxCell>
        <mxCell id="UP5W1mAo5ZvH92x6CNs8-7" value="" style="ellipse;html=1;shape=startState;fillColor=#000000;strokeColor=#ff0000;" vertex="1" parent="1">
          <mxGeometry x="110" y="1130" width="30" height="30" as="geometry" />
        </mxCell>
        <mxCell id="UP5W1mAo5ZvH92x6CNs8-9" value="" style="ellipse;html=1;shape=endState;fillColor=strokeColor;" vertex="1" parent="1">
          <mxGeometry x="665" y="1135" width="30" height="30" as="geometry" />
        </mxCell>
        <mxCell id="UP5W1mAo5ZvH92x6CNs8-17" value="" style="edgeStyle=orthogonalEdgeStyle;rounded=0;orthogonalLoop=1;jettySize=auto;html=1;" edge="1" parent="1" source="UP5W1mAo5ZvH92x6CNs8-11" target="UP5W1mAo5ZvH92x6CNs8-16">
          <mxGeometry relative="1" as="geometry" />
        </mxCell>
        <mxCell id="UP5W1mAo5ZvH92x6CNs8-11" value="Online" style="rounded=1;whiteSpace=wrap;html=1;" vertex="1" parent="1">
          <mxGeometry x="270" y="97.5" width="80" height="55" as="geometry" />
        </mxCell>
        <mxCell id="UP5W1mAo5ZvH92x6CNs8-12" value="logs in/creates account" style="text;html=1;align=center;verticalAlign=middle;resizable=0;points=[];autosize=1;strokeColor=none;fillColor=none;" vertex="1" parent="1">
          <mxGeometry x="130" y="90" width="150" height="30" as="geometry" />
        </mxCell>
        <mxCell id="UP5W1mAo5ZvH92x6CNs8-14" value="" style="edgeStyle=orthogonalEdgeStyle;rounded=0;orthogonalLoop=1;jettySize=auto;html=1;" edge="1" parent="1" source="UP5W1mAo5ZvH92x6CNs8-13" target="UP5W1mAo5ZvH92x6CNs8-6">
          <mxGeometry relative="1" as="geometry" />
        </mxCell>
        <mxCell id="UP5W1mAo5ZvH92x6CNs8-13" value="Offline" style="rounded=1;whiteSpace=wrap;html=1;" vertex="1" parent="1">
          <mxGeometry x="460" y="97.5" width="80" height="55" as="geometry" />
        </mxCell>
        <mxCell id="UP5W1mAo5ZvH92x6CNs8-15" value="logs out" style="text;html=1;align=center;verticalAlign=middle;resizable=0;points=[];autosize=1;strokeColor=none;fillColor=none;" vertex="1" parent="1">
          <mxGeometry x="540" y="97.5" width="70" height="30" as="geometry" />
        </mxCell>
        <mxCell id="UP5W1mAo5ZvH92x6CNs8-16" value="Deleted" style="whiteSpace=wrap;html=1;rounded=1;" vertex="1" parent="1">
          <mxGeometry x="270" y="230" width="80" height="60" as="geometry" />
        </mxCell>
        <mxCell id="UP5W1mAo5ZvH92x6CNs8-18" value="delete account" style="text;html=1;align=center;verticalAlign=middle;resizable=0;points=[];autosize=1;strokeColor=none;fillColor=none;" vertex="1" parent="1">
          <mxGeometry x="307.5" y="178" width="100" height="30" as="geometry" />
        </mxCell>
        <mxCell id="UP5W1mAo5ZvH92x6CNs8-20" value="" style="edgeStyle=orthogonalEdgeStyle;html=1;verticalAlign=bottom;endArrow=open;endSize=8;strokeColor=light-dark(#FF0000,#FFFFFF);rounded=0;fillColor=light-dark(transparent,#FFFFFF);exitX=1;exitY=0.5;exitDx=0;exitDy=0;" edge="1" parent="1" source="UP5W1mAo5ZvH92x6CNs8-16">
          <mxGeometry relative="1" as="geometry">
            <mxPoint x="430" y="260" as="targetPoint" />
            <mxPoint x="370" y="260" as="sourcePoint" />
          </mxGeometry>
        </mxCell>
        <mxCell id="UP5W1mAo5ZvH92x6CNs8-21" value="" style="edgeStyle=orthogonalEdgeStyle;html=1;verticalAlign=bottom;endArrow=open;endSize=8;strokeColor=light-dark(#FF0000,#FFFFFF);rounded=0;fillColor=light-dark(transparent,#FFFFFF);exitX=1;exitY=0.5;exitDx=0;exitDy=0;" edge="1" parent="1" source="UP5W1mAo5ZvH92x6CNs8-11">
          <mxGeometry relative="1" as="geometry">
            <mxPoint x="460" y="125" as="targetPoint" />
            <mxPoint x="360" y="125" as="sourcePoint" />
          </mxGeometry>
        </mxCell>
        <mxCell id="UP5W1mAo5ZvH92x6CNs8-28" value="" style="edgeStyle=orthogonalEdgeStyle;rounded=0;orthogonalLoop=1;jettySize=auto;html=1;" edge="1" parent="1" target="UP5W1mAo5ZvH92x6CNs8-24">
          <mxGeometry relative="1" as="geometry">
            <mxPoint x="617.5" y="475" as="sourcePoint" />
          </mxGeometry>
        </mxCell>
        <mxCell id="UP5W1mAo5ZvH92x6CNs8-35" value="" style="edgeStyle=orthogonalEdgeStyle;html=1;verticalAlign=bottom;endArrow=open;endSize=8;strokeColor=light-dark(#FF0000,#FFFFFF);rounded=0;fillColor=light-dark(transparent,#FFFFFF);entryX=0;entryY=0.5;entryDx=0;entryDy=0;" edge="1" parent="1" target="UP5W1mAo5ZvH92x6CNs8-37">
          <mxGeometry relative="1" as="geometry">
            <mxPoint x="220" y="1145" as="targetPoint" />
            <mxPoint x="135" y="1144.57" as="sourcePoint" />
          </mxGeometry>
        </mxCell>
        <mxCell id="UP5W1mAo5ZvH92x6CNs8-37" value="Created" style="whiteSpace=wrap;html=1;rounded=1;" vertex="1" parent="1">
          <mxGeometry x="260" y="1115" width="87.5" height="60" as="geometry" />
        </mxCell>
        <mxCell id="UP5W1mAo5ZvH92x6CNs8-38" value="Saved" style="whiteSpace=wrap;html=1;rounded=1;" vertex="1" parent="1">
          <mxGeometry x="495" y="1120" width="87.5" height="60" as="geometry" />
        </mxCell>
        <mxCell id="UP5W1mAo5ZvH92x6CNs8-39" value="" style="edgeStyle=orthogonalEdgeStyle;html=1;verticalAlign=bottom;endArrow=open;endSize=8;strokeColor=light-dark(#FF0000,#FFFFFF);rounded=0;fillColor=light-dark(transparent,#FFFFFF);entryX=0;entryY=0.5;entryDx=0;entryDy=0;exitX=1;exitY=0.5;exitDx=0;exitDy=0;" edge="1" parent="1" source="UP5W1mAo5ZvH92x6CNs8-38" target="UP5W1mAo5ZvH92x6CNs8-9">
          <mxGeometry relative="1" as="geometry">
            <mxPoint x="632.5" y="1149.57" as="targetPoint" />
            <mxPoint x="590" y="1150" as="sourcePoint" />
          </mxGeometry>
        </mxCell>
        <mxCell id="UP5W1mAo5ZvH92x6CNs8-40" value="&lt;font style=&quot;font-size: 10px;&quot;&gt;user logs out&lt;/font&gt;" style="text;html=1;align=center;verticalAlign=middle;resizable=0;points=[];autosize=1;strokeColor=none;fillColor=none;" vertex="1" parent="1">
          <mxGeometry x="577.5" y="1120" width="80" height="30" as="geometry" />
        </mxCell>
        <mxCell id="UP5W1mAo5ZvH92x6CNs8-41" value="Submitted" style="whiteSpace=wrap;html=1;rounded=1;" vertex="1" parent="1">
          <mxGeometry x="620" y="1370" width="87.5" height="60" as="geometry" />
        </mxCell>
        <mxCell id="UP5W1mAo5ZvH92x6CNs8-43" value="" style="edgeStyle=orthogonalEdgeStyle;html=1;verticalAlign=bottom;endArrow=open;endSize=8;strokeColor=light-dark(#FF0000,#FFFFFF);rounded=0;fillColor=light-dark(transparent,#FFFFFF);entryX=0;entryY=0.5;entryDx=0;entryDy=0;" edge="1" parent="1" target="UP5W1mAo5ZvH92x6CNs8-75">
          <mxGeometry relative="1" as="geometry">
            <mxPoint x="780" y="1405" as="targetPoint" />
            <mxPoint x="710" y="1400" as="sourcePoint" />
            <Array as="points">
              <mxPoint x="790" y="1400" />
              <mxPoint x="790" y="1400" />
            </Array>
          </mxGeometry>
        </mxCell>
        <mxCell id="UP5W1mAo5ZvH92x6CNs8-44" value="&lt;font style=&quot;font-size: 10px;&quot;&gt;user logs out&lt;/font&gt;" style="text;html=1;align=center;verticalAlign=middle;resizable=0;points=[];autosize=1;strokeColor=none;fillColor=none;" vertex="1" parent="1">
          <mxGeometry x="717.5" y="1400" width="80" height="30" as="geometry" />
        </mxCell>
        <mxCell id="UP5W1mAo5ZvH92x6CNs8-47" value="Edited" style="whiteSpace=wrap;html=1;rounded=1;" vertex="1" parent="1">
          <mxGeometry x="260" y="1210" width="87.5" height="60" as="geometry" />
        </mxCell>
        <mxCell id="UP5W1mAo5ZvH92x6CNs8-48" value="Reviewed" style="whiteSpace=wrap;html=1;rounded=1;" vertex="1" parent="1">
          <mxGeometry x="260" y="1450" width="87.5" height="60" as="geometry" />
        </mxCell>
        <mxCell id="UP5W1mAo5ZvH92x6CNs8-50" value="" style="edgeStyle=orthogonalEdgeStyle;html=1;verticalAlign=bottom;endArrow=open;endSize=8;strokeColor=light-dark(#FF0000,#FFFFFF);rounded=0;fillColor=light-dark(transparent,#FFFFFF);exitX=0.5;exitY=1;exitDx=0;exitDy=0;" edge="1" parent="1" source="UP5W1mAo5ZvH92x6CNs8-7" target="UP5W1mAo5ZvH92x6CNs8-47">
          <mxGeometry relative="1" as="geometry">
            <mxPoint x="220" y="1219.95" as="targetPoint" />
            <mxPoint x="120" y="1170" as="sourcePoint" />
            <Array as="points">
              <mxPoint x="125" y="1240" />
            </Array>
          </mxGeometry>
        </mxCell>
        <mxCell id="UP5W1mAo5ZvH92x6CNs8-51" value="" style="edgeStyle=orthogonalEdgeStyle;html=1;verticalAlign=bottom;endArrow=open;endSize=8;strokeColor=light-dark(#FF0000,#FFFFFF);rounded=0;fillColor=light-dark(transparent,#FFFFFF);exitX=0.5;exitY=1;exitDx=0;exitDy=0;entryX=0.5;entryY=0;entryDx=0;entryDy=0;" edge="1" parent="1" source="UP5W1mAo5ZvH92x6CNs8-37" target="UP5W1mAo5ZvH92x6CNs8-47">
          <mxGeometry relative="1" as="geometry">
            <mxPoint x="250" y="1155" as="targetPoint" />
            <mxPoint x="165" y="1154.57" as="sourcePoint" />
          </mxGeometry>
        </mxCell>
        <mxCell id="UP5W1mAo5ZvH92x6CNs8-53" value="" style="ellipse;html=1;shape=endState;fillColor=strokeColor;" vertex="1" parent="1">
          <mxGeometry x="430" y="245" width="30" height="30" as="geometry" />
        </mxCell>
        <mxCell id="UP5W1mAo5ZvH92x6CNs8-54" value="account no longer exists" style="text;html=1;align=center;verticalAlign=middle;resizable=0;points=[];autosize=1;strokeColor=none;fillColor=none;" vertex="1" parent="1">
          <mxGeometry x="350" y="215" width="150" height="30" as="geometry" />
        </mxCell>
        <mxCell id="UP5W1mAo5ZvH92x6CNs8-55" value="" style="ellipse;html=1;shape=startState;fillColor=#000000;strokeColor=#ff0000;" vertex="1" parent="1">
          <mxGeometry x="172.5" y="460" width="30" height="30" as="geometry" />
        </mxCell>
        <mxCell id="UP5W1mAo5ZvH92x6CNs8-56" value="" style="edgeStyle=orthogonalEdgeStyle;html=1;verticalAlign=bottom;endArrow=open;endSize=8;strokeColor=light-dark(#FF0000,#FFFFFF);rounded=0;entryX=0;entryY=0.5;entryDx=0;entryDy=0;fillColor=light-dark(transparent,#FFFFFF);" edge="1" parent="1" source="UP5W1mAo5ZvH92x6CNs8-55" target="UP5W1mAo5ZvH92x6CNs8-59">
          <mxGeometry relative="1" as="geometry">
            <mxPoint x="247.5" y="475" as="targetPoint" />
          </mxGeometry>
        </mxCell>
        <mxCell id="UP5W1mAo5ZvH92x6CNs8-57" value="" style="ellipse;html=1;shape=endState;fillColor=strokeColor;" vertex="1" parent="1">
          <mxGeometry x="657.5" y="460" width="30" height="30" as="geometry" />
        </mxCell>
        <mxCell id="UP5W1mAo5ZvH92x6CNs8-58" value="" style="edgeStyle=orthogonalEdgeStyle;rounded=0;orthogonalLoop=1;jettySize=auto;html=1;" edge="1" parent="1" source="UP5W1mAo5ZvH92x6CNs8-59" target="UP5W1mAo5ZvH92x6CNs8-64">
          <mxGeometry relative="1" as="geometry" />
        </mxCell>
        <mxCell id="UP5W1mAo5ZvH92x6CNs8-59" value="Online" style="rounded=1;whiteSpace=wrap;html=1;" vertex="1" parent="1">
          <mxGeometry x="317.5" y="447.5" width="80" height="55" as="geometry" />
        </mxCell>
        <mxCell id="UP5W1mAo5ZvH92x6CNs8-60" value="logs in/creates account" style="text;html=1;align=center;verticalAlign=middle;resizable=0;points=[];autosize=1;strokeColor=none;fillColor=none;" vertex="1" parent="1">
          <mxGeometry x="177.5" y="440" width="150" height="30" as="geometry" />
        </mxCell>
        <mxCell id="UP5W1mAo5ZvH92x6CNs8-61" value="" style="edgeStyle=orthogonalEdgeStyle;rounded=0;orthogonalLoop=1;jettySize=auto;html=1;" edge="1" parent="1" source="UP5W1mAo5ZvH92x6CNs8-62" target="UP5W1mAo5ZvH92x6CNs8-57">
          <mxGeometry relative="1" as="geometry" />
        </mxCell>
        <mxCell id="UP5W1mAo5ZvH92x6CNs8-62" value="Offline" style="rounded=1;whiteSpace=wrap;html=1;" vertex="1" parent="1">
          <mxGeometry x="507.5" y="447.5" width="80" height="55" as="geometry" />
        </mxCell>
        <mxCell id="UP5W1mAo5ZvH92x6CNs8-63" value="logged out" style="text;html=1;align=center;verticalAlign=middle;resizable=0;points=[];autosize=1;strokeColor=none;fillColor=none;" vertex="1" parent="1">
          <mxGeometry x="582.5" y="447.5" width="80" height="30" as="geometry" />
        </mxCell>
        <mxCell id="UP5W1mAo5ZvH92x6CNs8-64" value="Deleted" style="whiteSpace=wrap;html=1;rounded=1;" vertex="1" parent="1">
          <mxGeometry x="317.5" y="580" width="80" height="60" as="geometry" />
        </mxCell>
        <mxCell id="UP5W1mAo5ZvH92x6CNs8-65" value="delete account" style="text;html=1;align=center;verticalAlign=middle;resizable=0;points=[];autosize=1;strokeColor=none;fillColor=none;" vertex="1" parent="1">
          <mxGeometry x="355" y="528" width="100" height="30" as="geometry" />
        </mxCell>
        <mxCell id="UP5W1mAo5ZvH92x6CNs8-66" value="" style="edgeStyle=orthogonalEdgeStyle;html=1;verticalAlign=bottom;endArrow=open;endSize=8;strokeColor=light-dark(#FF0000,#FFFFFF);rounded=0;fillColor=light-dark(transparent,#FFFFFF);exitX=1;exitY=0.5;exitDx=0;exitDy=0;" edge="1" parent="1" source="UP5W1mAo5ZvH92x6CNs8-64">
          <mxGeometry relative="1" as="geometry">
            <mxPoint x="477.5" y="610" as="targetPoint" />
            <mxPoint x="417.5" y="610" as="sourcePoint" />
          </mxGeometry>
        </mxCell>
        <mxCell id="UP5W1mAo5ZvH92x6CNs8-67" value="" style="edgeStyle=orthogonalEdgeStyle;html=1;verticalAlign=bottom;endArrow=open;endSize=8;strokeColor=light-dark(#FF0000,#FFFFFF);rounded=0;fillColor=light-dark(transparent,#FFFFFF);exitX=1;exitY=0.5;exitDx=0;exitDy=0;" edge="1" parent="1" source="UP5W1mAo5ZvH92x6CNs8-59">
          <mxGeometry relative="1" as="geometry">
            <mxPoint x="507.5" y="475" as="targetPoint" />
            <mxPoint x="407.5" y="475" as="sourcePoint" />
          </mxGeometry>
        </mxCell>
        <mxCell id="UP5W1mAo5ZvH92x6CNs8-68" value="" style="ellipse;html=1;shape=endState;fillColor=strokeColor;" vertex="1" parent="1">
          <mxGeometry x="477.5" y="595" width="30" height="30" as="geometry" />
        </mxCell>
        <mxCell id="UP5W1mAo5ZvH92x6CNs8-69" value="account no longer exists" style="text;html=1;align=center;verticalAlign=middle;resizable=0;points=[];autosize=1;strokeColor=none;fillColor=none;" vertex="1" parent="1">
          <mxGeometry x="397.5" y="565" width="150" height="30" as="geometry" />
        </mxCell>
        <mxCell id="UP5W1mAo5ZvH92x6CNs8-70" value="&lt;font style=&quot;font-size: 10px;&quot;&gt;user creates tax form&lt;/font&gt;" style="text;html=1;align=center;verticalAlign=middle;resizable=0;points=[];autosize=1;strokeColor=none;fillColor=none;" vertex="1" parent="1">
          <mxGeometry x="130" y="1115" width="120" height="30" as="geometry" />
        </mxCell>
        <mxCell id="UP5W1mAo5ZvH92x6CNs8-71" value="&lt;font style=&quot;font-size: 10px;&quot;&gt;user edits existing tax form&lt;/font&gt;" style="text;html=1;align=center;verticalAlign=middle;resizable=0;points=[];autosize=1;strokeColor=none;fillColor=none;" vertex="1" parent="1">
          <mxGeometry x="120" y="1210" width="140" height="30" as="geometry" />
        </mxCell>
        <mxCell id="UP5W1mAo5ZvH92x6CNs8-72" value="" style="edgeStyle=orthogonalEdgeStyle;html=1;verticalAlign=bottom;endArrow=open;endSize=8;strokeColor=light-dark(#FF0000,#FFFFFF);rounded=0;fillColor=light-dark(transparent,#FFFFFF);exitX=0.5;exitY=1;exitDx=0;exitDy=0;entryX=0;entryY=0.5;entryDx=0;entryDy=0;" edge="1" parent="1" target="UP5W1mAo5ZvH92x6CNs8-48">
          <mxGeometry relative="1" as="geometry">
            <mxPoint x="237.52" y="1350" as="targetPoint" />
            <mxPoint x="125.02" y="1175" as="sourcePoint" />
            <Array as="points">
              <mxPoint x="125" y="1480" />
            </Array>
          </mxGeometry>
        </mxCell>
        <mxCell id="UP5W1mAo5ZvH92x6CNs8-73" value="&lt;font style=&quot;font-size: 10px;&quot;&gt;user views submitted form&lt;/font&gt;" style="text;html=1;align=center;verticalAlign=middle;resizable=0;points=[];autosize=1;strokeColor=none;fillColor=none;" vertex="1" parent="1">
          <mxGeometry x="120" y="1480" width="140" height="30" as="geometry" />
        </mxCell>
        <mxCell id="UP5W1mAo5ZvH92x6CNs8-74" value="logs out" style="text;html=1;align=center;verticalAlign=middle;resizable=0;points=[];autosize=1;strokeColor=none;fillColor=none;" vertex="1" parent="1">
          <mxGeometry x="410" y="447.5" width="70" height="30" as="geometry" />
        </mxCell>
        <mxCell id="UP5W1mAo5ZvH92x6CNs8-75" value="" style="ellipse;html=1;shape=endState;fillColor=strokeColor;" vertex="1" parent="1">
          <mxGeometry x="810" y="1385" width="30" height="30" as="geometry" />
        </mxCell>
        <mxCell id="UP5W1mAo5ZvH92x6CNs8-77" value="&lt;font style=&quot;font-size: 10px;&quot;&gt;user edits newly created tax form&lt;/font&gt;" style="text;html=1;align=center;verticalAlign=middle;resizable=0;points=[];autosize=1;strokeColor=none;fillColor=none;" vertex="1" parent="1">
          <mxGeometry x="297.5" y="1175" width="170" height="30" as="geometry" />
        </mxCell>
        <mxCell id="UP5W1mAo5ZvH92x6CNs8-78" value="" style="endArrow=classic;html=1;rounded=0;entryX=0;entryY=0.5;entryDx=0;entryDy=0;" edge="1" parent="1" target="UP5W1mAo5ZvH92x6CNs8-38">
          <mxGeometry width="50" height="50" relative="1" as="geometry">
            <mxPoint x="350" y="1150" as="sourcePoint" />
            <mxPoint x="400" y="1150" as="targetPoint" />
          </mxGeometry>
        </mxCell>
        <mxCell id="UP5W1mAo5ZvH92x6CNs8-79" value="&lt;font style=&quot;font-size: 10px;&quot;&gt;user saves blank tax form&lt;/font&gt;" style="text;html=1;align=center;verticalAlign=middle;resizable=0;points=[];autosize=1;strokeColor=none;fillColor=none;" vertex="1" parent="1">
          <mxGeometry x="355" y="1120" width="140" height="30" as="geometry" />
        </mxCell>
        <mxCell id="UP5W1mAo5ZvH92x6CNs8-81" value="" style="edgeStyle=orthogonalEdgeStyle;html=1;verticalAlign=bottom;endArrow=open;endSize=8;strokeColor=light-dark(#FF0000,#FFFFFF);rounded=0;fillColor=light-dark(transparent,#FFFFFF);exitX=1;exitY=0.5;exitDx=0;exitDy=0;entryX=0.5;entryY=1;entryDx=0;entryDy=0;" edge="1" parent="1" source="UP5W1mAo5ZvH92x6CNs8-47" target="UP5W1mAo5ZvH92x6CNs8-38">
          <mxGeometry relative="1" as="geometry">
            <mxPoint x="247.52" y="1360" as="targetPoint" />
            <mxPoint x="135.01999999999998" y="1185" as="sourcePoint" />
            <Array as="points">
              <mxPoint x="539" y="1240" />
            </Array>
          </mxGeometry>
        </mxCell>
        <mxCell id="UP5W1mAo5ZvH92x6CNs8-83" value="&lt;font style=&quot;font-size: 10px;&quot;&gt;user saves edited tax form&lt;/font&gt;" style="text;html=1;align=center;verticalAlign=middle;resizable=0;points=[];autosize=1;strokeColor=none;fillColor=none;" vertex="1" parent="1">
          <mxGeometry x="360" y="1210" width="140" height="30" as="geometry" />
        </mxCell>
        <mxCell id="UP5W1mAo5ZvH92x6CNs8-85" value="" style="ellipse;html=1;shape=endState;fillColor=strokeColor;" vertex="1" parent="1">
          <mxGeometry x="440" y="1465" width="30" height="30" as="geometry" />
        </mxCell>
        <mxCell id="UP5W1mAo5ZvH92x6CNs8-86" value="" style="edgeStyle=orthogonalEdgeStyle;html=1;verticalAlign=bottom;endArrow=open;endSize=8;strokeColor=light-dark(#FF0000,#FFFFFF);rounded=0;fillColor=light-dark(transparent,#FFFFFF);entryX=0;entryY=0.5;entryDx=0;entryDy=0;" edge="1" parent="1">
          <mxGeometry relative="1" as="geometry">
            <mxPoint x="440" y="1480" as="targetPoint" />
            <mxPoint x="350" y="1480" as="sourcePoint" />
          </mxGeometry>
        </mxCell>
        <mxCell id="UP5W1mAo5ZvH92x6CNs8-87" value="Processing" style="whiteSpace=wrap;html=1;rounded=1;" vertex="1" parent="1">
          <mxGeometry x="260" y="1370" width="87.5" height="60" as="geometry" />
        </mxCell>
        <mxCell id="UP5W1mAo5ZvH92x6CNs8-88" value="Validated" style="whiteSpace=wrap;html=1;rounded=1;" vertex="1" parent="1">
          <mxGeometry x="440" y="1370" width="87.5" height="60" as="geometry" />
        </mxCell>
        <mxCell id="UP5W1mAo5ZvH92x6CNs8-89" value="Invalidated" style="whiteSpace=wrap;html=1;rounded=1;" vertex="1" parent="1">
          <mxGeometry x="140" y="1295" width="87.5" height="60" as="geometry" />
        </mxCell>
        <mxCell id="UP5W1mAo5ZvH92x6CNs8-91" value="" style="edgeStyle=orthogonalEdgeStyle;html=1;verticalAlign=bottom;endArrow=open;endSize=8;strokeColor=light-dark(#FF0000,#FFFFFF);rounded=0;fillColor=light-dark(transparent,#FFFFFF);exitX=0.5;exitY=1;exitDx=0;exitDy=0;entryX=0.5;entryY=0;entryDx=0;entryDy=0;" edge="1" parent="1" target="UP5W1mAo5ZvH92x6CNs8-87">
          <mxGeometry relative="1" as="geometry">
            <mxPoint x="303.32" y="1307.5" as="targetPoint" />
            <mxPoint x="303.32" y="1272.5" as="sourcePoint" />
          </mxGeometry>
        </mxCell>
        <mxCell id="UP5W1mAo5ZvH92x6CNs8-93" value="&lt;font style=&quot;font-size: 10px;&quot;&gt;user attempts to submit tax form&lt;/font&gt;" style="text;html=1;align=center;verticalAlign=middle;resizable=0;points=[];autosize=1;strokeColor=none;fillColor=none;" vertex="1" parent="1">
          <mxGeometry x="300" y="1290" width="170" height="30" as="geometry" />
        </mxCell>
        <mxCell id="UP5W1mAo5ZvH92x6CNs8-94" value="" style="edgeStyle=orthogonalEdgeStyle;html=1;verticalAlign=bottom;endArrow=open;endSize=8;strokeColor=light-dark(#FF0000,#FFFFFF);rounded=0;fillColor=light-dark(transparent,#FFFFFF);exitX=0;exitY=0.5;exitDx=0;exitDy=0;entryX=0.5;entryY=1;entryDx=0;entryDy=0;" edge="1" parent="1" source="UP5W1mAo5ZvH92x6CNs8-87" target="UP5W1mAo5ZvH92x6CNs8-89">
          <mxGeometry relative="1" as="geometry">
            <mxPoint x="180" y="1360" as="targetPoint" />
            <mxPoint x="327.5" y="1339.52" as="sourcePoint" />
          </mxGeometry>
        </mxCell>
        <mxCell id="UP5W1mAo5ZvH92x6CNs8-95" value="&lt;font style=&quot;font-size: 10px;&quot;&gt;validation = invalid&lt;/font&gt;" style="text;html=1;align=center;verticalAlign=middle;resizable=0;points=[];autosize=1;strokeColor=none;fillColor=none;" vertex="1" parent="1">
          <mxGeometry x="155" y="1400" width="110" height="30" as="geometry" />
        </mxCell>
        <mxCell id="UP5W1mAo5ZvH92x6CNs8-96" value="" style="edgeStyle=orthogonalEdgeStyle;html=1;verticalAlign=bottom;endArrow=open;endSize=8;strokeColor=light-dark(#FF0000,#FFFFFF);rounded=0;fillColor=light-dark(transparent,#FFFFFF);" edge="1" parent="1">
          <mxGeometry relative="1" as="geometry">
            <mxPoint x="180" y="1240" as="targetPoint" />
            <mxPoint x="180" y="1290" as="sourcePoint" />
          </mxGeometry>
        </mxCell>
        <mxCell id="UP5W1mAo5ZvH92x6CNs8-97" value="&lt;span style=&quot;font-size: 10px;&quot;&gt;user redirected to edit page&lt;/span&gt;" style="text;html=1;align=center;verticalAlign=middle;resizable=0;points=[];autosize=1;strokeColor=none;fillColor=none;" vertex="1" parent="1">
          <mxGeometry x="115" y="1260" width="150" height="30" as="geometry" />
        </mxCell>
        <mxCell id="UP5W1mAo5ZvH92x6CNs8-99" value="" style="edgeStyle=orthogonalEdgeStyle;html=1;verticalAlign=bottom;endArrow=open;endSize=8;strokeColor=light-dark(#FF0000,#FFFFFF);rounded=0;fillColor=light-dark(transparent,#FFFFFF);entryX=0;entryY=0.5;entryDx=0;entryDy=0;" edge="1" parent="1">
          <mxGeometry relative="1" as="geometry">
            <mxPoint x="441.25" y="1400.48" as="targetPoint" />
            <mxPoint x="350" y="1400" as="sourcePoint" />
          </mxGeometry>
        </mxCell>
        <mxCell id="UP5W1mAo5ZvH92x6CNs8-100" value="&lt;font style=&quot;font-size: 10px;&quot;&gt;validation = valid&lt;/font&gt;" style="text;html=1;align=center;verticalAlign=middle;resizable=0;points=[];autosize=1;strokeColor=none;fillColor=none;" vertex="1" parent="1">
          <mxGeometry x="340" y="1405" width="100" height="30" as="geometry" />
        </mxCell>
        <mxCell id="UP5W1mAo5ZvH92x6CNs8-101" value="&lt;font style=&quot;font-size: 10px;&quot;&gt;user logs out&lt;/font&gt;" style="text;html=1;align=center;verticalAlign=middle;resizable=0;points=[];autosize=1;strokeColor=none;fillColor=none;" vertex="1" parent="1">
          <mxGeometry x="350" y="1480" width="80" height="30" as="geometry" />
        </mxCell>
        <mxCell id="UP5W1mAo5ZvH92x6CNs8-102" value="" style="edgeStyle=orthogonalEdgeStyle;html=1;verticalAlign=bottom;endArrow=open;endSize=8;strokeColor=light-dark(#FF0000,#FFFFFF);rounded=0;fillColor=light-dark(transparent,#FFFFFF);entryX=0;entryY=0.5;entryDx=0;entryDy=0;" edge="1" parent="1">
          <mxGeometry relative="1" as="geometry">
            <mxPoint x="620.63" y="1399.48" as="targetPoint" />
            <mxPoint x="529.38" y="1399" as="sourcePoint" />
          </mxGeometry>
        </mxCell>
        <mxCell id="UP5W1mAo5ZvH92x6CNs8-103" value="&lt;font style=&quot;font-size: 10px;&quot;&gt;user submits form&lt;/font&gt;" style="text;html=1;align=center;verticalAlign=middle;resizable=0;points=[];autosize=1;strokeColor=none;fillColor=none;" vertex="1" parent="1">
          <mxGeometry x="520" y="1400" width="100" height="30" as="geometry" />
        </mxCell>
        <mxCell id="UP5W1mAo5ZvH92x6CNs8-144" value="" style="ellipse;html=1;shape=startState;fillColor=#000000;strokeColor=#ff0000;" vertex="1" parent="1">
          <mxGeometry x="50" y="1955" width="30" height="30" as="geometry" />
        </mxCell>
        <mxCell id="UP5W1mAo5ZvH92x6CNs8-145" value="" style="ellipse;html=1;shape=endState;fillColor=strokeColor;" vertex="1" parent="1">
          <mxGeometry x="605" y="1960" width="30" height="30" as="geometry" />
        </mxCell>
        <mxCell id="UP5W1mAo5ZvH92x6CNs8-146" value="" style="edgeStyle=orthogonalEdgeStyle;html=1;verticalAlign=bottom;endArrow=open;endSize=8;strokeColor=light-dark(#FF0000,#FFFFFF);rounded=0;fillColor=light-dark(transparent,#FFFFFF);entryX=0;entryY=0.5;entryDx=0;entryDy=0;" edge="1" parent="1" target="UP5W1mAo5ZvH92x6CNs8-147">
          <mxGeometry relative="1" as="geometry">
            <mxPoint x="160" y="1970" as="targetPoint" />
            <mxPoint x="75" y="1969.57" as="sourcePoint" />
          </mxGeometry>
        </mxCell>
        <mxCell id="UP5W1mAo5ZvH92x6CNs8-147" value="Created" style="whiteSpace=wrap;html=1;rounded=1;" vertex="1" parent="1">
          <mxGeometry x="200" y="1940" width="87.5" height="60" as="geometry" />
        </mxCell>
        <mxCell id="UP5W1mAo5ZvH92x6CNs8-148" value="Saved" style="whiteSpace=wrap;html=1;rounded=1;" vertex="1" parent="1">
          <mxGeometry x="435" y="1945" width="87.5" height="60" as="geometry" />
        </mxCell>
        <mxCell id="UP5W1mAo5ZvH92x6CNs8-149" value="" style="edgeStyle=orthogonalEdgeStyle;html=1;verticalAlign=bottom;endArrow=open;endSize=8;strokeColor=light-dark(#FF0000,#FFFFFF);rounded=0;fillColor=light-dark(transparent,#FFFFFF);entryX=0;entryY=0.5;entryDx=0;entryDy=0;exitX=1;exitY=0.5;exitDx=0;exitDy=0;" edge="1" parent="1" source="UP5W1mAo5ZvH92x6CNs8-148" target="UP5W1mAo5ZvH92x6CNs8-145">
          <mxGeometry relative="1" as="geometry">
            <mxPoint x="572.5" y="1974.57" as="targetPoint" />
            <mxPoint x="530" y="1975" as="sourcePoint" />
          </mxGeometry>
        </mxCell>
        <mxCell id="UP5W1mAo5ZvH92x6CNs8-150" value="&lt;font style=&quot;font-size: 10px;&quot;&gt;user logs out&lt;/font&gt;" style="text;html=1;align=center;verticalAlign=middle;resizable=0;points=[];autosize=1;strokeColor=none;fillColor=none;" vertex="1" parent="1">
          <mxGeometry x="517.5" y="1945" width="80" height="30" as="geometry" />
        </mxCell>
        <mxCell id="UP5W1mAo5ZvH92x6CNs8-151" value="Submitted" style="whiteSpace=wrap;html=1;rounded=1;" vertex="1" parent="1">
          <mxGeometry x="560" y="2195" width="87.5" height="60" as="geometry" />
        </mxCell>
        <mxCell id="UP5W1mAo5ZvH92x6CNs8-152" value="" style="edgeStyle=orthogonalEdgeStyle;html=1;verticalAlign=bottom;endArrow=open;endSize=8;strokeColor=light-dark(#FF0000,#FFFFFF);rounded=0;fillColor=light-dark(transparent,#FFFFFF);entryX=0;entryY=0.5;entryDx=0;entryDy=0;" edge="1" parent="1" target="UP5W1mAo5ZvH92x6CNs8-162">
          <mxGeometry relative="1" as="geometry">
            <mxPoint x="720" y="2230" as="targetPoint" />
            <mxPoint x="650" y="2225" as="sourcePoint" />
            <Array as="points">
              <mxPoint x="730" y="2225" />
              <mxPoint x="730" y="2225" />
            </Array>
          </mxGeometry>
        </mxCell>
        <mxCell id="UP5W1mAo5ZvH92x6CNs8-153" value="&lt;font style=&quot;font-size: 10px;&quot;&gt;user logs out&lt;/font&gt;" style="text;html=1;align=center;verticalAlign=middle;resizable=0;points=[];autosize=1;strokeColor=none;fillColor=none;" vertex="1" parent="1">
          <mxGeometry x="657.5" y="2225" width="80" height="30" as="geometry" />
        </mxCell>
        <mxCell id="UP5W1mAo5ZvH92x6CNs8-154" value="Edited" style="whiteSpace=wrap;html=1;rounded=1;" vertex="1" parent="1">
          <mxGeometry x="200" y="2035" width="87.5" height="60" as="geometry" />
        </mxCell>
        <mxCell id="UP5W1mAo5ZvH92x6CNs8-155" value="Reviewed" style="whiteSpace=wrap;html=1;rounded=1;" vertex="1" parent="1">
          <mxGeometry x="200" y="2275" width="87.5" height="60" as="geometry" />
        </mxCell>
        <mxCell id="UP5W1mAo5ZvH92x6CNs8-156" value="" style="edgeStyle=orthogonalEdgeStyle;html=1;verticalAlign=bottom;endArrow=open;endSize=8;strokeColor=light-dark(#FF0000,#FFFFFF);rounded=0;fillColor=light-dark(transparent,#FFFFFF);exitX=0.5;exitY=1;exitDx=0;exitDy=0;" edge="1" parent="1" source="UP5W1mAo5ZvH92x6CNs8-144" target="UP5W1mAo5ZvH92x6CNs8-154">
          <mxGeometry relative="1" as="geometry">
            <mxPoint x="160" y="2044.95" as="targetPoint" />
            <mxPoint x="60" y="1995" as="sourcePoint" />
            <Array as="points">
              <mxPoint x="65" y="2065" />
            </Array>
          </mxGeometry>
        </mxCell>
        <mxCell id="UP5W1mAo5ZvH92x6CNs8-157" value="" style="edgeStyle=orthogonalEdgeStyle;html=1;verticalAlign=bottom;endArrow=open;endSize=8;strokeColor=light-dark(#FF0000,#FFFFFF);rounded=0;fillColor=light-dark(transparent,#FFFFFF);exitX=0.5;exitY=1;exitDx=0;exitDy=0;entryX=0.5;entryY=0;entryDx=0;entryDy=0;" edge="1" parent="1" source="UP5W1mAo5ZvH92x6CNs8-147" target="UP5W1mAo5ZvH92x6CNs8-154">
          <mxGeometry relative="1" as="geometry">
            <mxPoint x="190" y="1980" as="targetPoint" />
            <mxPoint x="105" y="1979.57" as="sourcePoint" />
          </mxGeometry>
        </mxCell>
        <mxCell id="UP5W1mAo5ZvH92x6CNs8-158" value="&lt;font style=&quot;font-size: 10px;&quot;&gt;user creates tax form&lt;/font&gt;" style="text;html=1;align=center;verticalAlign=middle;resizable=0;points=[];autosize=1;strokeColor=none;fillColor=none;" vertex="1" parent="1">
          <mxGeometry x="70" y="1940" width="120" height="30" as="geometry" />
        </mxCell>
        <mxCell id="UP5W1mAo5ZvH92x6CNs8-159" value="&lt;font style=&quot;font-size: 10px;&quot;&gt;user edits existing tax form&lt;/font&gt;" style="text;html=1;align=center;verticalAlign=middle;resizable=0;points=[];autosize=1;strokeColor=none;fillColor=none;" vertex="1" parent="1">
          <mxGeometry x="60" y="2035" width="140" height="30" as="geometry" />
        </mxCell>
        <mxCell id="UP5W1mAo5ZvH92x6CNs8-160" value="" style="edgeStyle=orthogonalEdgeStyle;html=1;verticalAlign=bottom;endArrow=open;endSize=8;strokeColor=light-dark(#FF0000,#FFFFFF);rounded=0;fillColor=light-dark(transparent,#FFFFFF);exitX=0.5;exitY=1;exitDx=0;exitDy=0;entryX=0;entryY=0.5;entryDx=0;entryDy=0;" edge="1" parent="1" target="UP5W1mAo5ZvH92x6CNs8-155">
          <mxGeometry relative="1" as="geometry">
            <mxPoint x="177.51999999999998" y="2175" as="targetPoint" />
            <mxPoint x="65.01999999999998" y="2000" as="sourcePoint" />
            <Array as="points">
              <mxPoint x="65" y="2305" />
            </Array>
          </mxGeometry>
        </mxCell>
        <mxCell id="UP5W1mAo5ZvH92x6CNs8-161" value="&lt;font style=&quot;font-size: 10px;&quot;&gt;user views submitted form&lt;/font&gt;" style="text;html=1;align=center;verticalAlign=middle;resizable=0;points=[];autosize=1;strokeColor=none;fillColor=none;" vertex="1" parent="1">
          <mxGeometry x="60" y="2305" width="140" height="30" as="geometry" />
        </mxCell>
        <mxCell id="UP5W1mAo5ZvH92x6CNs8-162" value="" style="ellipse;html=1;shape=endState;fillColor=strokeColor;" vertex="1" parent="1">
          <mxGeometry x="750" y="2210" width="30" height="30" as="geometry" />
        </mxCell>
        <mxCell id="UP5W1mAo5ZvH92x6CNs8-163" value="&lt;font style=&quot;font-size: 10px;&quot;&gt;user edits newly created tax form&lt;/font&gt;" style="text;html=1;align=center;verticalAlign=middle;resizable=0;points=[];autosize=1;strokeColor=none;fillColor=none;" vertex="1" parent="1">
          <mxGeometry x="237.5" y="2000" width="170" height="30" as="geometry" />
        </mxCell>
        <mxCell id="UP5W1mAo5ZvH92x6CNs8-164" value="" style="endArrow=classic;html=1;rounded=0;entryX=0;entryY=0.5;entryDx=0;entryDy=0;" edge="1" parent="1" target="UP5W1mAo5ZvH92x6CNs8-148">
          <mxGeometry width="50" height="50" relative="1" as="geometry">
            <mxPoint x="290" y="1975" as="sourcePoint" />
            <mxPoint x="340" y="1975" as="targetPoint" />
          </mxGeometry>
        </mxCell>
        <mxCell id="UP5W1mAo5ZvH92x6CNs8-165" value="&lt;font style=&quot;font-size: 10px;&quot;&gt;user saves blank tax form&lt;/font&gt;" style="text;html=1;align=center;verticalAlign=middle;resizable=0;points=[];autosize=1;strokeColor=none;fillColor=none;" vertex="1" parent="1">
          <mxGeometry x="295" y="1945" width="140" height="30" as="geometry" />
        </mxCell>
        <mxCell id="UP5W1mAo5ZvH92x6CNs8-166" value="" style="edgeStyle=orthogonalEdgeStyle;html=1;verticalAlign=bottom;endArrow=open;endSize=8;strokeColor=light-dark(#FF0000,#FFFFFF);rounded=0;fillColor=light-dark(transparent,#FFFFFF);exitX=1;exitY=0.5;exitDx=0;exitDy=0;entryX=0.5;entryY=1;entryDx=0;entryDy=0;" edge="1" parent="1" source="UP5W1mAo5ZvH92x6CNs8-154" target="UP5W1mAo5ZvH92x6CNs8-148">
          <mxGeometry relative="1" as="geometry">
            <mxPoint x="187.51999999999998" y="2185" as="targetPoint" />
            <mxPoint x="75.01999999999998" y="2010" as="sourcePoint" />
            <Array as="points">
              <mxPoint x="479" y="2065" />
            </Array>
          </mxGeometry>
        </mxCell>
        <mxCell id="UP5W1mAo5ZvH92x6CNs8-167" value="&lt;font style=&quot;font-size: 10px;&quot;&gt;user saves edited tax form&lt;/font&gt;" style="text;html=1;align=center;verticalAlign=middle;resizable=0;points=[];autosize=1;strokeColor=none;fillColor=none;" vertex="1" parent="1">
          <mxGeometry x="300" y="2035" width="140" height="30" as="geometry" />
        </mxCell>
        <mxCell id="UP5W1mAo5ZvH92x6CNs8-168" value="" style="ellipse;html=1;shape=endState;fillColor=strokeColor;" vertex="1" parent="1">
          <mxGeometry x="380" y="2290" width="30" height="30" as="geometry" />
        </mxCell>
        <mxCell id="UP5W1mAo5ZvH92x6CNs8-169" value="" style="edgeStyle=orthogonalEdgeStyle;html=1;verticalAlign=bottom;endArrow=open;endSize=8;strokeColor=light-dark(#FF0000,#FFFFFF);rounded=0;fillColor=light-dark(transparent,#FFFFFF);entryX=0;entryY=0.5;entryDx=0;entryDy=0;" edge="1" parent="1">
          <mxGeometry relative="1" as="geometry">
            <mxPoint x="380" y="2305" as="targetPoint" />
            <mxPoint x="290" y="2305" as="sourcePoint" />
          </mxGeometry>
        </mxCell>
        <mxCell id="UP5W1mAo5ZvH92x6CNs8-170" value="Processing" style="whiteSpace=wrap;html=1;rounded=1;" vertex="1" parent="1">
          <mxGeometry x="200" y="2195" width="87.5" height="60" as="geometry" />
        </mxCell>
        <mxCell id="UP5W1mAo5ZvH92x6CNs8-171" value="Validated" style="whiteSpace=wrap;html=1;rounded=1;" vertex="1" parent="1">
          <mxGeometry x="380" y="2195" width="87.5" height="60" as="geometry" />
        </mxCell>
        <mxCell id="UP5W1mAo5ZvH92x6CNs8-172" value="Invalidated" style="whiteSpace=wrap;html=1;rounded=1;" vertex="1" parent="1">
          <mxGeometry x="80" y="2120" width="87.5" height="60" as="geometry" />
        </mxCell>
        <mxCell id="UP5W1mAo5ZvH92x6CNs8-173" value="" style="edgeStyle=orthogonalEdgeStyle;html=1;verticalAlign=bottom;endArrow=open;endSize=8;strokeColor=light-dark(#FF0000,#FFFFFF);rounded=0;fillColor=light-dark(transparent,#FFFFFF);exitX=0.5;exitY=1;exitDx=0;exitDy=0;entryX=0.5;entryY=0;entryDx=0;entryDy=0;" edge="1" parent="1" target="UP5W1mAo5ZvH92x6CNs8-170">
          <mxGeometry relative="1" as="geometry">
            <mxPoint x="243.32" y="2132.5" as="targetPoint" />
            <mxPoint x="243.32" y="2097.5" as="sourcePoint" />
          </mxGeometry>
        </mxCell>
        <mxCell id="UP5W1mAo5ZvH92x6CNs8-174" value="&lt;font style=&quot;font-size: 10px;&quot;&gt;user attempts to submit tax form&lt;/font&gt;" style="text;html=1;align=center;verticalAlign=middle;resizable=0;points=[];autosize=1;strokeColor=none;fillColor=none;" vertex="1" parent="1">
          <mxGeometry x="240" y="2115" width="170" height="30" as="geometry" />
        </mxCell>
        <mxCell id="UP5W1mAo5ZvH92x6CNs8-175" value="" style="edgeStyle=orthogonalEdgeStyle;html=1;verticalAlign=bottom;endArrow=open;endSize=8;strokeColor=light-dark(#FF0000,#FFFFFF);rounded=0;fillColor=light-dark(transparent,#FFFFFF);exitX=0;exitY=0.5;exitDx=0;exitDy=0;entryX=0.5;entryY=1;entryDx=0;entryDy=0;" edge="1" parent="1" source="UP5W1mAo5ZvH92x6CNs8-170" target="UP5W1mAo5ZvH92x6CNs8-172">
          <mxGeometry relative="1" as="geometry">
            <mxPoint x="120" y="2185" as="targetPoint" />
            <mxPoint x="267.5" y="2164.52" as="sourcePoint" />
          </mxGeometry>
        </mxCell>
        <mxCell id="UP5W1mAo5ZvH92x6CNs8-176" value="&lt;font style=&quot;font-size: 10px;&quot;&gt;validation = invalid&lt;/font&gt;" style="text;html=1;align=center;verticalAlign=middle;resizable=0;points=[];autosize=1;strokeColor=none;fillColor=none;" vertex="1" parent="1">
          <mxGeometry x="95" y="2225" width="110" height="30" as="geometry" />
        </mxCell>
        <mxCell id="UP5W1mAo5ZvH92x6CNs8-177" value="" style="edgeStyle=orthogonalEdgeStyle;html=1;verticalAlign=bottom;endArrow=open;endSize=8;strokeColor=light-dark(#FF0000,#FFFFFF);rounded=0;fillColor=light-dark(transparent,#FFFFFF);" edge="1" parent="1">
          <mxGeometry relative="1" as="geometry">
            <mxPoint x="120" y="2065" as="targetPoint" />
            <mxPoint x="120" y="2115" as="sourcePoint" />
          </mxGeometry>
        </mxCell>
        <mxCell id="UP5W1mAo5ZvH92x6CNs8-178" value="&lt;span style=&quot;font-size: 10px;&quot;&gt;user redirected to edit page&lt;/span&gt;" style="text;html=1;align=center;verticalAlign=middle;resizable=0;points=[];autosize=1;strokeColor=none;fillColor=none;" vertex="1" parent="1">
          <mxGeometry x="55" y="2085" width="150" height="30" as="geometry" />
        </mxCell>
        <mxCell id="UP5W1mAo5ZvH92x6CNs8-179" value="" style="edgeStyle=orthogonalEdgeStyle;html=1;verticalAlign=bottom;endArrow=open;endSize=8;strokeColor=light-dark(#FF0000,#FFFFFF);rounded=0;fillColor=light-dark(transparent,#FFFFFF);entryX=0;entryY=0.5;entryDx=0;entryDy=0;" edge="1" parent="1">
          <mxGeometry relative="1" as="geometry">
            <mxPoint x="381.25" y="2225.48" as="targetPoint" />
            <mxPoint x="290" y="2225" as="sourcePoint" />
          </mxGeometry>
        </mxCell>
        <mxCell id="UP5W1mAo5ZvH92x6CNs8-180" value="&lt;font style=&quot;font-size: 10px;&quot;&gt;validation = valid&lt;/font&gt;" style="text;html=1;align=center;verticalAlign=middle;resizable=0;points=[];autosize=1;strokeColor=none;fillColor=none;" vertex="1" parent="1">
          <mxGeometry x="280" y="2230" width="100" height="30" as="geometry" />
        </mxCell>
        <mxCell id="UP5W1mAo5ZvH92x6CNs8-181" value="&lt;font style=&quot;font-size: 10px;&quot;&gt;user logs out&lt;/font&gt;" style="text;html=1;align=center;verticalAlign=middle;resizable=0;points=[];autosize=1;strokeColor=none;fillColor=none;" vertex="1" parent="1">
          <mxGeometry x="290" y="2305" width="80" height="30" as="geometry" />
        </mxCell>
        <mxCell id="UP5W1mAo5ZvH92x6CNs8-182" value="" style="edgeStyle=orthogonalEdgeStyle;html=1;verticalAlign=bottom;endArrow=open;endSize=8;strokeColor=light-dark(#FF0000,#FFFFFF);rounded=0;fillColor=light-dark(transparent,#FFFFFF);entryX=0;entryY=0.5;entryDx=0;entryDy=0;" edge="1" parent="1">
          <mxGeometry relative="1" as="geometry">
            <mxPoint x="560.63" y="2224.48" as="targetPoint" />
            <mxPoint x="469.38" y="2224" as="sourcePoint" />
          </mxGeometry>
        </mxCell>
        <mxCell id="UP5W1mAo5ZvH92x6CNs8-183" value="&lt;font style=&quot;font-size: 10px;&quot;&gt;user submits form&lt;/font&gt;" style="text;html=1;align=center;verticalAlign=middle;resizable=0;points=[];autosize=1;strokeColor=none;fillColor=none;" vertex="1" parent="1">
          <mxGeometry x="460" y="2225" width="100" height="30" as="geometry" />
        </mxCell>
      </root>
    </mxGraphModel>
  </diagram>
</mxfile>
